<svg id="Layer_1" data-name="Layer 1" xmlns="http://www.w3.org/2000/svg" xmlns:xlink="http://www.w3.org/1999/xlink" viewBox="0 0 927.33 313.35"><defs><style>.cls-1{fill:url(#linear-gradient);}.cls-2{fill:#f1f2f2;}</style><linearGradient id="linear-gradient" x1="14.77" y1="382.83" x2="279.65" y2="117.94" gradientUnits="userSpaceOnUse"><stop offset="0" stop-color="#fff33b"/><stop offset="0.12" stop-color="#fac73b"/><stop offset="0.26" stop-color="#f59d3b"/><stop offset="0.4" stop-color="#f07b3a"/><stop offset="0.55" stop-color="#ed603a"/><stop offset="0.69" stop-color="#eb4d3a"/><stop offset="0.84" stop-color="#e9423a"/><stop offset="1" stop-color="#e93e3a"/></linearGradient></defs><path d="M73.49,98.44V225.59h147V98.44h39.68V402.33H220.47V259.86h-147V402.33H34.27V98.44Z" transform="translate(-34.27 -97.82)"/><path class="cls-1" d="M73.49,98.44V225.59h147V98.44h39.68V402.33H220.47V259.86h-147V402.33H34.27V98.44Z" transform="translate(-34.27 -97.82)"/><path class="cls-2" d="M521.56,396.74c-14.43,7.22-43.28,14.43-80.25,14.43-85.67,0-150.14-54.1-150.14-153.75,0-95.13,64.47-159.6,158.71-159.6,37.87,0,61.76,8.11,72.13,13.52l-9.46,32c-14.88-7.22-36.07-12.63-61.32-12.63-71.24,0-118.58,45.54-118.58,125.34,0,74.4,42.83,122.19,116.77,122.19,23.9,0,48.25-5,64-12.63Z" transform="translate(-34.27 -97.82)"/><path class="cls-2" d="M565.29,358.87a139,139,0,0,0,70.33,19.84c40.13,0,63.58-21.19,63.58-51.85,0-28.41-16.24-44.64-57.26-60.42-49.6-17.58-80.26-43.28-80.26-86.11,0-47.34,39.23-82.51,98.29-82.51,31.11,0,53.65,7.21,67.18,14.88l-10.82,32a121,121,0,0,0-57.71-14.43c-41.48,0-57.26,24.8-57.26,45.54,0,28.4,18.48,42.38,60.41,58.61,51.4,19.84,77.55,44.64,77.55,89.27,0,46.89-34.71,87.47-106.4,87.47-29.31,0-61.32-8.57-77.55-19.39Z" transform="translate(-34.27 -97.82)"/><path class="cls-2" d="M787.56,358.87a139.05,139.05,0,0,0,70.34,19.84c40.12,0,63.57-21.19,63.57-51.85,0-28.41-16.23-44.64-57.26-60.42C814.61,248.86,784,223.16,784,180.33c0-47.34,39.22-82.51,98.28-82.51,31.11,0,53.66,7.21,67.18,14.88l-10.82,32a121,121,0,0,0-57.71-14.43c-41.48,0-57.26,24.8-57.26,45.54,0,28.4,18.49,42.38,60.42,58.61,51.4,19.84,77.55,44.64,77.55,89.27,0,46.89-34.72,87.47-106.41,87.47-29.31,0-61.31-8.57-77.55-19.39Z" transform="translate(-34.27 -97.82)"/><path class="cls-2" d="M521.56,396.74c-14.43,7.22-43.28,14.43-80.25,14.43-85.67,0-150.14-54.1-150.14-153.75,0-95.13,64.47-159.6,158.71-159.6,37.87,0,61.76,8.11,72.13,13.52l-9.46,32c-14.88-7.22-36.07-12.63-61.32-12.63-71.24,0-118.58,45.54-118.58,125.34,0,74.4,42.83,122.19,116.77,122.19,23.9,0,48.25-5,64-12.63Z" transform="translate(-34.27 -97.82)"/><path class="cls-2" d="M565.29,358.87a139,139,0,0,0,70.33,19.84c40.13,0,63.58-21.19,63.58-51.85,0-28.41-16.24-44.64-57.26-60.42-49.6-17.58-80.26-43.28-80.26-86.11,0-47.34,39.23-82.51,98.29-82.51,31.11,0,53.65,7.21,67.18,14.88l-10.82,32a121,121,0,0,0-57.71-14.43c-41.48,0-57.26,24.8-57.26,45.54,0,28.4,18.48,42.38,60.41,58.61,51.4,19.84,77.55,44.64,77.55,89.27,0,46.89-34.71,87.47-106.4,87.47-29.31,0-61.32-8.57-77.55-19.39Z" transform="translate(-34.27 -97.82)"/><path class="cls-2" d="M787.56,358.87a139.05,139.05,0,0,0,70.34,19.84c40.12,0,63.57-21.19,63.57-51.85,0-28.41-16.23-44.64-57.26-60.42C814.61,248.86,784,223.16,784,180.33c0-47.34,39.22-82.51,98.28-82.51,31.11,0,53.66,7.21,67.18,14.88l-10.82,32a121,121,0,0,0-57.71-14.43c-41.48,0-57.26,24.8-57.26,45.54,0,28.4,18.49,42.38,60.42,58.61,51.4,19.84,77.55,44.64,77.55,89.27,0,46.89-34.72,87.47-106.41,87.47-29.31,0-61.31-8.57-77.55-19.39Z" transform="translate(-34.27 -97.82)"/></svg>